<svg width="47" height="47" viewBox="0 0 47 47" fill="none" xmlns="http://www.w3.org/2000/svg">
<path d="M23.6546 45.1886C35.4726 45.1886 45.0529 35.6083 45.0529 23.7904C45.0529 11.9724 35.4726 2.39209 23.6546 2.39209C11.8367 2.39209 2.25635 11.9724 2.25635 23.7904C2.25635 35.6083 11.8367 45.1886 23.6546 45.1886Z" fill="#FD4755"/>
<path fill-rule="evenodd" clip-rule="evenodd" d="M23.6548 0.870605C29.9837 0.870605 35.7138 3.43612 39.8615 7.58377C44.0093 11.7316 46.5747 17.4616 46.5747 23.7905C46.5747 30.1195 44.0093 35.8495 39.8615 39.9972C35.7138 44.145 29.9837 46.7104 23.6548 46.7104C17.3258 46.7104 11.5958 44.145 7.44802 39.9973C3.30037 35.8495 0.734863 30.1195 0.734863 23.7905C0.734863 17.4616 3.30037 11.7316 7.44802 7.58386C11.5958 3.43612 17.3258 0.870605 23.6548 0.870605ZM37.7098 9.73557C34.1129 6.13867 29.1437 3.91391 23.6548 3.91391C18.1659 3.91391 13.1966 6.13867 9.59974 9.73557C6.00293 13.3324 3.77817 18.3016 3.77817 23.7905C3.77817 29.2794 6.00293 34.2487 9.59983 37.8455C13.1966 41.4424 18.1659 43.6671 23.6548 43.6671C29.1437 43.6671 34.1129 41.4424 37.7097 37.8455C41.3066 34.2487 43.5314 29.2794 43.5314 23.7905C43.5314 18.3016 41.3066 13.3324 37.7098 9.73557Z" fill="#EFEFEF"/>
<path fill-rule="evenodd" clip-rule="evenodd" d="M28.988 16.3055C29.5821 15.7113 30.5455 15.7113 31.1397 16.3055C31.7339 16.8996 31.7339 17.863 31.1397 18.4572L25.8064 23.7905L31.1397 29.1238C31.7339 29.718 31.7339 30.6814 31.1397 31.2756C30.5455 31.8698 29.5821 31.8698 28.988 31.2756L23.6547 25.9423L18.3214 31.2756C17.7272 31.8698 16.7638 31.8698 16.1697 31.2756C15.5756 30.6814 15.5756 29.718 16.1697 29.1238L21.503 23.7905L16.1697 18.4572C15.5756 17.863 15.5756 16.8996 16.1697 16.3055C16.7639 15.7113 17.7273 15.7113 18.3214 16.3055L23.6547 21.6388L28.988 16.3055Z" fill="#EFEFEF"/>
</svg>
