<svg width="25" height="25" viewBox="0 0 25 25" fill="none" xmlns="http://www.w3.org/2000/svg">
<path d="M19.1806 22.9805H6.60057C3.20057 22.9805 3.02057 21.1105 2.87057 19.6005L2.47057 14.5905C2.38057 13.6205 2.66057 12.6505 3.28057 11.8705C4.02057 10.9705 5.07057 10.4805 6.20057 10.4805H19.5806C20.6906 10.4805 21.7406 10.9705 22.4506 11.8205L22.6206 12.0505C23.1606 12.7905 23.4006 13.6905 23.3106 14.6005L22.9106 19.5905C22.7606 21.1105 22.5806 22.9805 19.1806 22.9805ZM6.20057 11.9805C5.53057 11.9805 4.89057 12.2805 4.47057 12.8005L4.40057 12.8705C4.08057 13.2805 3.91057 13.8605 3.97057 14.4605L4.37057 19.4705C4.51057 20.9305 4.57057 21.4805 6.60057 21.4805H19.1806C21.2206 21.4805 21.2706 20.9305 21.4106 19.4605L21.8106 14.4505C21.8706 13.8605 21.7006 13.2705 21.3106 12.8105L21.2106 12.6905C20.7606 12.2205 20.1906 11.9805 19.5706 11.9805H6.20057Z" fill="#1492E6"/>
<path d="M21.3906 12.4507C20.9806 12.4507 20.6406 12.1107 20.6406 11.7007V9.91074C20.6406 6.93074 20.1206 6.41074 17.1406 6.41074H14.5906C13.4606 6.41074 13.0706 6.01074 12.6406 5.44074L11.3506 3.73074C10.9106 3.15074 10.8106 3.01074 9.91063 3.01074H8.64062C5.66062 3.01074 5.14062 3.53074 5.14062 6.51074V11.6607C5.14062 12.0707 4.80062 12.4107 4.39062 12.4107C3.98063 12.4107 3.64062 12.0707 3.64062 11.6607V6.51074C3.64062 2.68074 4.81063 1.51074 8.64062 1.51074H9.92062C11.4606 1.51074 11.9406 2.01074 12.5606 2.83074L13.8406 4.53074C14.1106 4.89074 14.1306 4.91074 14.6006 4.91074H17.1506C20.9806 4.91074 22.1506 6.08074 22.1506 9.91074V11.7007C22.1406 12.1107 21.8006 12.4507 21.3906 12.4507Z" fill="#1492E6"/>
<path d="M15.4607 17.9805H10.3207C9.91068 17.9805 9.57068 17.6405 9.57068 17.2305C9.57068 16.8205 9.91068 16.4805 10.3207 16.4805H15.4607C15.8707 16.4805 16.2107 16.8205 16.2107 17.2305C16.2107 17.6405 15.8807 17.9805 15.4607 17.9805Z" fill="#1492E6"/>
</svg>
