<svg width="31" height="31" viewBox="0 0 31 31" fill="none" xmlns="http://www.w3.org/2000/svg">
<path d="M15.8906 8.28027V12.4428" stroke="#1492E6" stroke-width="1.5" stroke-miterlimit="10" stroke-linecap="round"/>
<path d="M15.9156 2.73047C11.3156 2.73047 7.59062 6.45547 7.59062 11.0555V13.6805C7.59062 14.5305 7.24062 15.8055 6.80312 16.5305L5.21562 19.1805C4.24062 20.818 4.91562 22.643 6.71562 23.243C12.6906 25.2305 19.1531 25.2305 25.1281 23.243C26.8156 22.6805 27.5406 20.7055 26.6281 19.1805L25.0406 16.5305C24.6031 15.8055 24.2531 14.518 24.2531 13.6805V11.0555C24.2406 6.48047 20.4906 2.73047 15.9156 2.73047Z" stroke="#1492E6" stroke-width="1.5" stroke-miterlimit="10" stroke-linecap="round"/>
<path d="M20.0532 23.7559C20.0532 26.0434 18.1781 27.9184 15.8906 27.9184C14.7531 27.9184 13.7031 27.4434 12.9531 26.6934C12.2031 25.9434 11.7281 24.8934 11.7281 23.7559" stroke="#1492E6" stroke-width="1.5" stroke-miterlimit="10"/>
</svg>
