<svg width="24" height="25" viewBox="0 0 24 25" fill="none" xmlns="http://www.w3.org/2000/svg">
<path fill-rule="evenodd" clip-rule="evenodd" d="M18.3089 13.2211L18.6769 14.1071C18.8199 14.1791 18.9589 14.2591 19.0919 14.3471L20.0439 14.2221C20.2929 14.1901 20.5409 14.2841 20.7059 14.4731C21.1529 14.9851 21.4969 15.5801 21.7169 16.2231C21.7979 16.4611 21.7549 16.7231 21.6029 16.9221C21.6029 16.9221 21.0189 17.6851 21.0189 17.6841C21.0279 17.8441 21.0279 18.0051 21.0189 18.1631L21.6029 18.9261C21.7549 19.1251 21.7979 19.3871 21.7169 19.6251C21.4969 20.2681 21.1529 20.8631 20.7059 21.3751C20.5409 21.5641 20.2929 21.6581 20.0439 21.6261L19.0919 21.5011C18.9579 21.5891 18.8189 21.6691 18.6769 21.7411L18.3089 22.6271C18.2129 22.8591 18.0069 23.0271 17.7609 23.0761C17.0929 23.2071 16.4069 23.2071 15.7389 23.0761C15.4929 23.0271 15.2869 22.8591 15.1909 22.6271L14.8229 21.7411C14.6799 21.6691 14.5409 21.5891 14.4079 21.5011L13.4559 21.6261C13.2069 21.6581 12.9589 21.5641 12.7939 21.3751C12.3469 20.8631 12.0029 20.2681 11.7829 19.6251C11.7019 19.3871 11.7449 19.1251 11.8969 18.9261C11.8969 18.9261 12.4809 18.1631 12.4809 18.1641C12.4719 18.0041 12.4719 17.8431 12.4809 17.6851L11.8969 16.9221C11.7449 16.7231 11.7019 16.4611 11.7829 16.2231C12.0029 15.5801 12.3469 14.9851 12.7939 14.4731C12.9589 14.2841 13.2069 14.1901 13.4559 14.2221L14.4079 14.3471C14.5419 14.2591 14.6809 14.1791 14.8229 14.1071L15.1909 13.2211C15.2869 12.9891 15.4929 12.8211 15.7389 12.7721C16.4069 12.6411 17.0929 12.6411 17.7609 12.7721C18.0069 12.8211 18.2129 12.9891 18.3089 13.2211ZM16.7499 16.6741C16.0599 16.6741 15.4999 17.2341 15.4999 17.9241C15.4999 18.6141 16.0599 19.1741 16.7499 19.1741C17.4399 19.1741 17.9999 18.6141 17.9999 17.9241C17.9999 17.2341 17.4399 16.6741 16.7499 16.6741Z" fill="#1492E6"/>
<path fill-rule="evenodd" clip-rule="evenodd" d="M14.3449 23.1738H4.99292C4.26292 23.1738 3.56392 22.8838 3.04792 22.3688C2.53192 21.8528 2.24292 21.1528 2.24292 20.4238V4.42383C2.24292 3.69483 2.53192 2.99483 3.04792 2.47883C3.56392 1.96383 4.26292 1.67383 4.99292 1.67383H13.5779C14.0429 1.67383 14.4879 1.85783 14.8159 2.18683L19.2299 6.60083C19.5579 6.92883 19.7429 7.37383 19.7429 7.83783V13.2528L19.4229 13.2948C19.3289 13.0678 19.2329 12.8368 19.2329 12.8368C19.0079 12.2958 18.5279 11.9038 17.9529 11.7908C17.1589 11.6348 16.3409 11.6348 15.5469 11.7908C14.9719 11.9038 14.4919 12.2958 14.2669 12.8368L14.0769 13.2948C13.8339 13.2628 13.5859 13.2308 13.5859 13.2308C13.0049 13.1548 12.4249 13.3738 12.0399 13.8148C11.5079 14.4258 11.0989 15.1328 10.8369 15.8998C10.6469 16.4528 10.7469 17.0658 11.1029 17.5298L11.4049 17.9238C11.2559 18.1188 11.1029 18.3178 11.1029 18.3178C10.7469 18.7818 10.6469 19.3948 10.8369 19.9478C11.0989 20.7148 11.5079 21.4218 12.0399 22.0328C12.4249 22.4738 13.0049 22.6928 13.5859 22.6168L14.0769 22.5528C14.1709 22.7798 14.2669 23.0108 14.2669 23.0108C14.2909 23.0668 14.3169 23.1208 14.3449 23.1738ZM13.4929 3.01383V6.92383C13.4929 7.47583 13.9399 7.92383 14.4929 7.92383H18.4029C18.3539 7.81583 18.2849 7.71683 18.1999 7.63083L13.7859 3.21683C13.6999 3.13083 13.6009 3.06283 13.4929 3.01383ZM5.99292 8.15483H10.4929C10.9069 8.15483 11.2429 7.81883 11.2429 7.40483C11.2429 6.99083 10.9069 6.65483 10.4929 6.65483H5.99292C5.57892 6.65483 5.24292 6.99083 5.24292 7.40483C5.24292 7.81883 5.57892 8.15483 5.99292 8.15483ZM5.99292 18.6738H9.49292C9.90692 18.6738 10.2429 18.3378 10.2429 17.9238C10.2429 17.5098 9.90692 17.1738 9.49292 17.1738H5.99292C5.57892 17.1738 5.24292 17.5098 5.24292 17.9238C5.24292 18.3378 5.57892 18.6738 5.99292 18.6738ZM5.99292 15.1738H9.49292C9.90692 15.1738 10.2429 14.8378 10.2429 14.4238C10.2429 14.0098 9.90692 13.6738 9.49292 13.6738H5.99292C5.57892 13.6738 5.24292 14.0098 5.24292 14.4238C5.24292 14.8378 5.57892 15.1738 5.99292 15.1738ZM5.99292 11.6738H12.9929C13.4069 11.6738 13.7429 11.3378 13.7429 10.9238C13.7429 10.5098 13.4069 10.1738 12.9929 10.1738H5.99292C5.57892 10.1738 5.24292 10.5098 5.24292 10.9238C5.24292 11.3378 5.57892 11.6738 5.99292 11.6738Z" fill="#1492E6"/>
</svg>
