<svg width="24" height="25" viewBox="0 0 24 25" fill="none" xmlns="http://www.w3.org/2000/svg">
<g clip-path="url(#clip0_14510_6255)">
<path fill-rule="evenodd" clip-rule="evenodd" d="M12 0.423828C5.38125 0.423828 0 5.80508 0 12.4238C0 19.0426 5.38125 24.4238 12 24.4238C18.6187 24.4238 24 19.0426 24 12.4238C24 5.80508 18.6187 0.423828 12 0.423828Z" fill="#F34235"/>
<path fill-rule="evenodd" clip-rule="evenodd" d="M17.1562 13.291C17.1562 16.1363 14.8406 18.4473 12 18.4473C9.15469 18.4473 6.84375 16.1316 6.84375 13.291C6.84375 11.5379 7.72031 9.9207 9.19219 8.96914C9.53906 8.74414 10.0031 8.84258 10.2281 9.18945C10.4531 9.53633 10.3547 10.0004 10.0078 10.2254C8.9625 10.9004 8.34375 12.0488 8.34375 13.291C8.34375 15.3066 9.98438 16.9473 12 16.9473C14.0156 16.9473 15.6562 15.3066 15.6562 13.291C15.6562 12.0488 15.0328 10.9004 13.9922 10.2254C13.6453 10.0004 13.5469 9.53633 13.7719 9.18945C13.9969 8.84258 14.4609 8.74414 14.8078 8.96914C16.2797 9.9207 17.1562 11.5379 17.1562 13.291ZM11.25 10.6145V7.15039C11.25 6.73789 11.5875 6.40039 12 6.40039C12.4125 6.40039 12.75 6.73789 12.75 7.15039V10.6145C12.75 11.027 12.4125 11.3645 12 11.3645C11.5875 11.3645 11.25 11.027 11.25 10.6145Z" fill="white"/>
</g>
<defs>
<clipPath id="clip0_14510_6255">
<rect width="24" height="24" fill="white" transform="translate(0 0.423828)"/>
</clipPath>
</defs>
</svg>
