<svg width="25" height="25" viewBox="0 0 25 25" fill="none" xmlns="http://www.w3.org/2000/svg">
<path d="M12.6962 21.1436H4.07525C3.52641 21.1436 3.08179 20.6987 3.08179 20.15V4.13701C3.08179 3.58825 3.52648 3.14355 4.07525 3.14355H20.0884C20.637 3.14355 21.0818 3.58825 21.0818 4.13701V20.15C21.0818 20.6987 20.637 21.1436 20.0884 21.1436H15.5015V14.173H17.8412L18.1916 11.4564H15.5015V9.72204C15.5015 8.93554 15.7199 8.39956 16.8478 8.39956L18.2863 8.39893V5.96921C18.0375 5.93611 17.1836 5.86214 16.1901 5.86214C14.1161 5.86214 12.6962 7.12813 12.6962 9.45301V11.4564H10.3505V14.173H12.6962V21.1436Z" fill="#0081FE"/>
</svg>
