<svg width="25" height="25" viewBox="0 0 25 25" fill="none" xmlns="http://www.w3.org/2000/svg">
<path fill-rule="evenodd" clip-rule="evenodd" d="M11.8896 13.7298C10.9952 13.7298 8.79877 13.7327 8.79877 13.7327V11.5544H14.2893C14.6717 14.1901 13.5182 18.1436 8.79877 18.1436C5.64135 18.1436 3.08179 15.6811 3.08179 12.6436C3.08179 9.60598 5.64135 7.14355 8.79877 7.14355C10.2803 7.14355 11.6302 7.68571 12.6458 8.57508C11.8588 9.29012 11.6065 9.56269 11.3921 9.79429C11.2806 9.91476 11.1793 10.0241 11.0184 10.179C10.4309 9.71156 9.79047 9.37623 8.79877 9.37623C6.92309 9.37623 5.45915 10.8391 5.45915 12.6436C5.45915 14.448 6.92309 15.9109 8.79877 15.9109C10.6522 15.9109 11.4053 15.1419 11.8896 13.7298ZM19.1007 9.75742V11.6634H21.0818V13.0247H19.1007V14.9851H17.6856V13.0247H15.6478V11.6634H17.6856V9.75742H19.1007Z" fill="#0081FE"/>
</svg>
