<svg width="25" height="25" viewBox="0 0 25 25" fill="none" xmlns="http://www.w3.org/2000/svg">
<path fill-rule="evenodd" clip-rule="evenodd" d="M12.0818 3.14355C9.63753 3.14355 9.33104 3.15392 8.3711 3.19771C7.41315 3.24141 6.75891 3.39356 6.18644 3.61606C5.59462 3.84603 5.09271 4.15377 4.59234 4.6541C4.092 5.15447 3.78426 5.65638 3.55429 6.24821C3.33179 6.82068 3.17964 7.47492 3.13595 8.43287C3.09215 9.39281 3.08179 9.6993 3.08179 12.1436C3.08179 14.5878 3.09215 14.8943 3.13595 15.8542C3.17964 16.8122 3.33179 17.4664 3.55429 18.0389C3.78426 18.6307 4.092 19.1326 4.59234 19.633C5.09271 20.1333 5.59462 20.4411 6.18644 20.6711C6.75891 20.8935 7.41315 21.0457 8.3711 21.0894C9.33104 21.1332 9.63753 21.1436 12.0818 21.1436C14.526 21.1436 14.8325 21.1332 15.7925 21.0894C16.7504 21.0457 17.4047 20.8935 17.9771 20.6711C18.569 20.4411 19.0709 20.1333 19.5712 19.633C20.0716 19.1326 20.3793 18.6307 20.6093 18.0389C20.8318 17.4664 20.9839 16.8122 21.0276 15.8542C21.0714 14.8943 21.0818 14.5878 21.0818 12.1436C21.0818 9.6993 21.0714 9.39281 21.0276 8.43287C20.9839 7.47492 20.8318 6.82068 20.6093 6.24821C20.3793 5.65638 20.0716 5.15447 19.5712 4.6541C19.0709 4.15377 18.569 3.84603 17.9771 3.61606C17.4047 3.39356 16.7504 3.24141 15.7925 3.19771C14.8325 3.15392 14.526 3.14355 12.0818 3.14355ZM12.0818 4.76517C14.4849 4.76517 14.7695 4.77436 15.7186 4.81765C16.5961 4.85767 17.0726 5.00428 17.3897 5.12754C17.8098 5.2908 18.1096 5.48583 18.4246 5.80079C18.7395 6.11571 18.9345 6.41552 19.0978 6.83561C19.2211 7.15275 19.3677 7.62929 19.4077 8.50678C19.451 9.4558 19.4602 9.74046 19.4602 12.1436C19.4602 14.5467 19.451 14.8313 19.4077 15.7803C19.3677 16.6578 19.2211 17.1344 19.0978 17.4515C18.9345 17.8716 18.7395 18.1714 18.4246 18.4863C18.1096 18.8013 17.8098 18.9963 17.3897 19.1596C17.0726 19.2828 16.5961 19.4294 15.7186 19.4695C14.7697 19.5128 14.4851 19.5219 12.0818 19.5219C9.67851 19.5219 9.39392 19.5128 8.44501 19.4695C7.56752 19.4294 7.09098 19.2828 6.77384 19.1596C6.35375 18.9963 6.05394 18.8013 5.73902 18.4863C5.4241 18.1714 5.22904 17.8716 5.06577 17.4515C4.94252 17.1344 4.7959 16.6578 4.75589 15.7803C4.71259 14.8313 4.70341 14.5467 4.70341 12.1436C4.70341 9.74046 4.71259 9.4558 4.75589 8.50678C4.7959 7.62929 4.94252 7.15275 5.06577 6.83561C5.22904 6.41552 5.42406 6.11571 5.73902 5.80079C6.05394 5.48583 6.35375 5.2908 6.77384 5.12754C7.09098 5.00428 7.56752 4.85767 8.44501 4.81765C9.39403 4.77436 9.67869 4.76517 12.0818 4.76517ZM7.46017 12.1436C7.46017 9.59109 9.52932 7.52194 12.0818 7.52194C14.6343 7.52194 16.7034 9.59109 16.7034 12.1436C16.7034 14.696 14.6343 16.7652 12.0818 16.7652C9.52932 16.7652 7.46017 14.696 7.46017 12.1436ZM12.0818 15.1436C10.4249 15.1436 9.08179 13.8004 9.08179 12.1436C9.08179 10.4867 10.4249 9.14355 12.0818 9.14355C13.7386 9.14355 15.0818 10.4867 15.0818 12.1436C15.0818 13.8004 13.7386 15.1436 12.0818 15.1436ZM16.886 8.41933C17.4825 8.41933 17.966 7.93582 17.966 7.33934C17.966 6.74287 17.4825 6.25932 16.886 6.25932C16.2896 6.25932 15.806 6.74287 15.806 7.33934C15.806 7.93582 16.2896 8.41933 16.886 8.41933Z" fill="#0081FE"/>
</svg>
