<svg width="25" height="25" viewBox="0 0 25 25" fill="none" xmlns="http://www.w3.org/2000/svg">
<path fill-rule="evenodd" clip-rule="evenodd" d="M5.20055 7.91483H5.17515C3.90516 7.91483 3.08179 7.08394 3.08179 6.03073C3.08179 4.95703 3.92951 4.14355 5.2249 4.14355C6.51923 4.14355 7.31509 4.95498 7.34049 6.02766C7.34049 7.08087 6.51923 7.91483 5.20055 7.91483ZM21.0818 20.1436H17.1035V14.5189C17.1035 13.0467 16.4812 12.0416 15.1128 12.0416C14.0661 12.0416 13.4841 12.7198 13.2131 13.3735C13.1237 13.5801 13.1253 13.8581 13.127 14.1447V14.1447C13.1272 14.1836 13.1274 14.2227 13.1274 14.2618V20.1436H9.18621C9.18621 20.1436 9.23701 10.1801 9.18621 9.27437H13.1274V10.9802C13.3602 10.2344 14.6197 9.16987 16.6294 9.16987C19.1228 9.16987 21.0818 10.7333 21.0818 14.0999V20.1436ZM7.04416 9.27437H3.53581V20.1436H7.04416V9.27437Z" fill="#0081FE"/>
</svg>
