<svg width="25" height="25" viewBox="0 0 25 25" fill="none" xmlns="http://www.w3.org/2000/svg">
<path d="M21.0818 6.91929C20.4204 7.22048 19.7083 7.42416 18.9613 7.51517C19.7242 7.04713 20.3095 6.30498 20.5852 5.42091C19.871 5.85428 19.0818 6.16956 18.2387 6.33857C17.5667 5.60293 16.6064 5.14355 15.5435 5.14355C13.5055 5.14355 11.852 6.83911 11.852 8.93012C11.852 9.22698 11.8837 9.51517 11.9471 9.79253C8.87788 9.63435 6.15733 8.12839 4.33482 5.83478C4.01681 6.39599 3.83509 7.04713 3.83509 7.74052C3.83509 9.05363 4.48696 10.2129 5.47798 10.8922C4.87365 10.8738 4.30313 10.7015 3.80445 10.4198V10.4664C3.80445 12.3017 5.07756 13.8326 6.768 14.1793C6.45844 14.2681 6.13197 14.3126 5.79494 14.3126C5.55722 14.3126 5.32479 14.2898 5.09975 14.2454C5.5699 15.7492 6.93282 16.8445 8.5493 16.8738C7.2857 17.89 5.69246 18.4957 3.96293 18.4957C3.66499 18.4957 3.37022 18.4783 3.08179 18.4437C4.71623 19.5163 6.65812 20.1436 8.74264 20.1436C15.5361 20.1436 19.2498 14.3743 19.2498 9.36999C19.2498 9.20531 19.2466 9.04063 19.2403 8.8792C19.9619 8.34507 20.5884 7.67877 21.0818 6.91929Z" fill="#0081FE"/>
</svg>
