<svg width="25" height="25" viewBox="0 0 25 25" fill="none" xmlns="http://www.w3.org/2000/svg">
<path fill-rule="evenodd" clip-rule="evenodd" d="M20.1863 7.11334C20.7257 7.67419 20.9018 8.94779 20.9018 8.94779C20.9018 8.94779 21.0818 10.4438 21.0818 11.9392V13.3416C21.0818 14.8376 20.9018 16.333 20.9018 16.333C20.9018 16.333 20.7257 17.6066 20.1863 18.1674C19.5696 18.8309 18.8857 18.8994 18.4992 18.9382C18.4567 18.9424 18.4177 18.9463 18.3829 18.9506C15.864 19.1378 12.0818 19.1436 12.0818 19.1436C12.0818 19.1436 7.40179 19.0997 5.96179 18.9576C5.89356 18.9445 5.81086 18.9343 5.7172 18.9228C5.26106 18.8666 4.54514 18.7784 3.97672 18.1674C3.43729 17.6066 3.26179 16.333 3.26179 16.333C3.26179 16.333 3.08179 14.8376 3.08179 13.3416V11.9392C3.08179 10.4438 3.26179 8.94779 3.26179 8.94779C3.26179 8.94779 3.43729 7.67419 3.97672 7.11334C4.59483 6.44894 5.27933 6.38113 5.6659 6.34283C5.70781 6.33868 5.74622 6.33488 5.78066 6.3307C8.29954 6.14355 12.0778 6.14355 12.0778 6.14355H12.0857C12.0857 6.14355 15.864 6.14355 18.3829 6.3307C18.4174 6.33488 18.4558 6.33869 18.4977 6.34285C18.884 6.38115 19.5688 6.44905 20.1863 7.11334ZM10.2227 9.84769L10.2233 15.0409L15.0861 12.4532L10.2227 9.84769Z" fill="#0081FE"/>
</svg>
